<?xml version="1.0" encoding="UTF-8"?> <!--Generator: Apple Native CoreSVG 175.5--> <!DOCTYPE svg PUBLIC "-//W3C//DTD SVG 1.1//EN" "http://www.w3.org/Graphics/SVG/1.1/DTD/svg11.dtd"> <svg version="1.1" xmlns="http://www.w3.org/2000/svg" xmlns:xlink="http://www.w3.org/1999/xlink" width="28.3789" height="22.2949"> <g> <rect height="22.2949" opacity="0" width="28.3789" x="0" y="0"/> <path d="M22.4902 14.0234L26.0449 17.0996C26.377 17.3926 26.7676 17.5781 27.1191 17.5781C27.8809 17.5781 28.3789 17.0215 28.3789 16.2207L28.3789 6.06445C28.3789 5.26367 27.8809 4.70703 27.1191 4.70703C26.7676 4.70703 26.377 4.89258 26.0449 5.18555L22.4902 8.25195ZM18.125 3.21289L7.53906 3.21289C5.66406 3.21289 4.4043 4.3457 4.4043 6.30859L4.4043 11.6113C4.62891 11.5332 4.87305 11.4844 5.12695 11.4844C5.89844 11.4844 6.57227 11.9141 6.9043 12.5293C7.07031 12.4805 7.22656 12.4512 7.40234 12.4512C8.44727 12.4512 9.29688 13.1836 9.49219 14.1504C9.50195 14.209 9.50195 14.2676 9.51172 14.3359C9.57031 14.3066 9.62891 14.2871 9.69727 14.2871C10.8887 14.2871 11.8359 15.2441 11.8359 16.416L11.8359 19.0723L18.0273 19.0723C19.9902 19.0723 21.1621 17.9395 21.1621 15.9863L21.1621 6.30859C21.1621 4.3457 20.0879 3.21289 18.125 3.21289Z" fill="#000000"/> <path d="M0.537109 18.9648C0.859375 18.9648 1.09375 18.7207 1.09375 18.418L1.09375 16.9336C1.09375 16.6309 0.859375 16.3867 0.537109 16.3867C0.234375 16.3867 0 16.6309 0 16.9336L0 18.418C0 18.7207 0.234375 18.9648 0.537109 18.9648Z" fill="#000000"/> <path d="M2.83203 20.6055C3.14453 20.6055 3.38867 20.3613 3.38867 20.0488L3.38867 15.3027C3.38867 14.9902 3.14453 14.7461 2.83203 14.7461C2.5293 14.7461 2.28516 14.9902 2.28516 15.3027L2.28516 20.0488C2.28516 20.3613 2.5293 20.6055 2.83203 20.6055Z" fill="#000000"/> <path d="M5.12695 22.2949C5.42969 22.2949 5.67383 22.0508 5.67383 21.748L5.67383 13.623C5.67383 13.3105 5.42969 13.0664 5.12695 13.0664C4.81445 13.0664 4.58008 13.3105 4.58008 13.623L4.58008 21.748C4.58008 22.0605 4.80469 22.2949 5.12695 22.2949Z" fill="#000000"/> <path d="M7.40234 21.3184C7.72461 21.3184 7.96875 21.0742 7.96875 20.7715L7.96875 14.5801C7.96875 14.2773 7.72461 14.0332 7.40234 14.0332C7.10938 14.0332 6.86523 14.2773 6.86523 14.5801L6.86523 20.7715C6.86523 21.0742 7.10938 21.3184 7.40234 21.3184Z" fill="#000000"/> <path d="M9.70703 19.4727C10.0195 19.4727 10.2539 19.248 10.2539 18.9258L10.2539 16.416C10.2539 16.1133 10.0195 15.8691 9.70703 15.8691C9.39453 15.8691 9.16016 16.123 9.16016 16.416L9.16016 18.9258C9.16016 19.2383 9.39453 19.4727 9.70703 19.4727Z" fill="#000000"/> </g> </svg>