<?xml version="1.0" encoding="UTF-8"?> <!--Generator: Apple Native CoreSVG 175.5--> <!DOCTYPE svg PUBLIC "-//W3C//DTD SVG 1.1//EN" "http://www.w3.org/Graphics/SVG/1.1/DTD/svg11.dtd"> <svg version="1.1" xmlns="http://www.w3.org/2000/svg" xmlns:xlink="http://www.w3.org/1999/xlink" width="16.4355" height="17.8809"> <g> <rect height="17.8809" opacity="0" width="16.4355" x="0" y="0"/> <path d="M1.66992 17.8809L14.7656 17.8809C15.8105 17.8809 16.4355 17.3926 16.4355 16.582C16.4355 14.0625 13.2812 10.5859 8.21289 10.5859C3.1543 10.5859 0 14.0625 0 16.582C0 17.3926 0.625 17.8809 1.66992 17.8809ZM8.22266 8.83789C10.3125 8.83789 12.1289 6.96289 12.1289 4.52148C12.1289 2.10938 10.3125 0.322266 8.22266 0.322266C6.13281 0.322266 4.31641 2.14844 4.31641 4.54102C4.31641 6.96289 6.12305 8.83789 8.22266 8.83789Z" fill="#000000"/> </g> </svg>